<svg width="16" height="16" viewBox="0 0 16 16" fill="none" xmlns="http://www.w3.org/2000/svg">
<path d="M8.00019 8.66688C8.98203 8.66688 9.77797 7.87095 9.77797 6.88911C9.77797 5.90727 8.98203 5.11133 8.00019 5.11133C7.01835 5.11133 6.22241 5.90727 6.22241 6.88911C6.22241 7.87095 7.01835 8.66688 8.00019 8.66688Z" stroke="#00063E" stroke-width="1.5" stroke-linecap="round" stroke-linejoin="round"/>
<path d="M4.58154 13.464C5.00732 11.9769 6.37621 10.8889 8.00021 10.8889C9.62421 10.8889 10.9931 11.9769 11.4189 13.464" stroke="#00063E" stroke-width="1.5" stroke-linecap="round" stroke-linejoin="round"/>
<path d="M8.00011 14.4446C11.5593 14.4446 14.4446 11.5593 14.4446 8.00011C14.4446 4.44094 11.5593 1.55566 8.00011 1.55566C4.44094 1.55566 1.55566 4.44094 1.55566 8.00011C1.55566 11.5593 4.44094 14.4446 8.00011 14.4446Z" stroke="#00063E" stroke-width="1.5" stroke-linecap="round" stroke-linejoin="round"/>
</svg>
