<svg width="188" height="40" viewBox="0 0 188 40" fill="none" xmlns="http://www.w3.org/2000/svg">
<path d="M55.9827 18.0953H59.2014C59.5258 18.0955 59.8469 18.0254 60.1421 17.8899C60.4372 17.7544 60.6998 17.5566 60.9117 17.31C61.1234 17.0635 61.2797 16.774 61.3699 16.4613C61.4601 16.1486 61.4817 15.8201 61.4338 15.4982L59.4074 1.93008C59.3282 1.39342 59.059 0.90324 58.649 0.548941C58.2394 0.194638 57.716 -0.000184684 57.175 1.31371e-07H55.5472C54.138 0.000510663 52.7481 0.331475 51.4893 0.966447C50.2302 1.60142 49.1368 2.52279 48.2963 3.65699L37.489 18.2409C37.2993 18.4923 37.0361 18.6778 36.736 18.7713C36.4358 18.8648 36.1141 18.8616 35.8159 18.7622C35.5174 18.6628 35.2579 18.4721 35.0732 18.217C34.8889 17.962 34.7887 17.6553 34.7871 17.3402V2.2653C34.7861 1.66478 34.5478 1.08911 34.1242 0.664478C33.701 0.239847 33.1267 0.000895893 32.5277 1.31371e-07H28.5121C27.1028 0.000245184 25.713 0.331092 24.454 0.966083C23.1949 1.60108 22.1015 2.5226 21.2611 3.65699L9.10297 20.0762C8.68344 20.6436 8.1371 21.1046 7.50781 21.4222C6.87848 21.7397 6.18367 21.905 5.47918 21.9047H2.25725C1.93246 21.905 1.61157 21.9755 1.31642 22.1114C1.02127 22.2473 0.758801 22.4454 0.546928 22.6922C0.335058 22.939 0.178744 23.2288 0.0886539 23.5416C-0.00143632 23.8545 -0.0231856 24.1831 0.0248776 24.5052L2.05124 38.0732C2.1321 38.6095 2.40224 39.099 2.81252 39.4527C3.2228 39.8061 3.74597 40.0003 4.28698 40H5.91149C7.32087 40 8.71076 39.6693 9.96984 39.0343C11.2289 38.3992 12.3223 37.4776 13.1625 36.343L23.9697 21.7591C24.1602 21.5097 24.4236 21.3262 24.7231 21.2339C25.0226 21.1417 25.3433 21.1454 25.6406 21.2445C25.9379 21.3436 26.197 21.5332 26.3818 21.7869C26.5666 22.0405 26.6678 22.3457 26.6715 22.6598V37.7382C26.6715 38.3378 26.9092 38.9131 27.3323 39.3376C27.7554 39.7617 28.3292 40 28.9276 40H32.9431C34.3532 40.0007 35.7437 39.67 37.0035 39.0349C38.2629 38.3999 39.357 37.4779 40.1975 36.343L52.3558 19.9238C52.7761 19.3563 53.3228 18.8953 53.9526 18.5778C54.5825 18.2603 55.278 18.095 55.9827 18.0953Z" fill="#FA374F"/>
<path d="M81.9032 1.38154V34.7243H88.9348V15.2916L102.572 34.7243H108.462V1.38154H101.43V20.8177L87.891 1.38154H81.9032ZM117.189 0C116.389 0.00668736 115.609 0.250665 114.947 0.701194C114.285 1.15172 113.77 1.78866 113.469 2.53167C113.167 3.27473 113.092 4.09062 113.252 4.87659C113.412 5.66255 113.801 6.38341 114.369 6.94827C114.937 7.51315 115.659 7.89681 116.444 8.05088C117.23 8.20492 118.043 8.12249 118.781 7.81398C119.52 7.50548 120.151 6.98467 120.595 6.3172C121.038 5.64977 121.275 4.86551 121.275 4.06333C121.261 2.98421 120.825 1.95381 120.061 1.19388C119.297 0.433944 118.265 0.00523242 117.189 0ZM113.866 11.3367V34.7243H120.563V11.3367H113.866ZM140.077 10.8592C136.848 10.8592 134.335 12.1933 132.714 14.6245V1.38154H126.014V34.7243H132.714V31.44C134.329 33.8677 136.848 35.2018 140.077 35.2018C146.112 35.2018 150.907 29.7232 150.907 23.0119C150.907 16.3007 146.112 10.8592 140.077 10.8592ZM138.557 28.7717C135.278 28.7717 132.714 26.293 132.714 23.0153C132.699 21.8592 133.027 20.7246 133.655 19.7555C134.284 18.7864 135.186 18.0266 136.246 17.5723C137.307 17.1181 138.478 16.99 139.612 17.2043C140.745 17.4187 141.789 17.9658 142.611 18.7761C143.434 19.5865 143.998 20.6236 144.231 21.7558C144.465 22.8881 144.358 24.0643 143.923 25.1353C143.489 26.2063 142.747 27.1238 141.791 27.7712C140.836 28.4186 139.71 28.7669 138.557 28.7717ZM165.815 10.8592C158.925 10.8592 153.7 16.1009 153.7 23.0492C153.7 29.9974 158.925 35.2155 165.815 35.2155C172.704 35.2155 177.929 30.0245 177.929 23.0695C177.929 16.1144 172.657 10.8592 165.815 10.8592ZM165.815 17.2928C168.949 17.2928 171.374 19.7206 171.374 23.0492C171.374 26.2863 168.949 28.7649 165.815 28.7649C162.681 28.7649 160.256 26.2863 160.256 23.0492C160.256 19.7206 162.63 17.2928 165.815 17.2928ZM188 1.37814H181.303V34.721H188V1.37814Z" fill="#FA374F"/>
</svg>
